<svg version="1.1" xmlns="http://www.w3.org/2000/svg" xmlns:xlink="http://www.w3.org/1999/xlink" x="0px" y="0px"
	 width="400.667px" height="205.333px" viewBox="0 0 400.667 205.333" enable-background="new 0 0 400.667 205.333"
	 xml:space="preserve">
<g id="first-name">
	<g>
		<path id="first-J" fill="#FFFFFF" stroke="#000000" stroke-width="3" stroke-linecap="round" stroke-linejoin="round" d="
			M47.839,28.558c0,0,3.161,4.442,6.328,1.109s7.882-9.176,8.858-17.921c0,0,12.142,34.421,13.476,100.421s-27.417,87.75-39.917,86
			S2.834,160.116,20.5,100.141s54.183-39.168,70.269-32.77"/>
		<path id="first-O" fill="#FFFFFF" stroke="#000000" stroke-width="3" stroke-linecap="round" d="M100.583,55.167
			c0,0-5.99-2.402-9.183,7.625s-1.942,15.375,2.433,14.875s8.521-4.125,11.136-12.375S100.583,55.167,100.583,55.167z"/>
		<path id="first-H" fill="#FFFFFF" stroke="#000000" stroke-width="3" stroke-linecap="round" d="M106.43,22.027
			c0,0,4.407,41.647,8.903,48.014s9.625,5.5,14.25,2.25s17.591-15.854,24-13.125s6.25,6.75,6.25,11.125s0.137,7.182,3.756,11.903"/>
		<path id="first-N" fill="#FFFFFF" stroke="#000000" stroke-width="3" stroke-linecap="round" stroke-linejoin="round" d="
			M188.343,83.779c-1.241-5.513-1.509-23.737-1.509-23.737s0.125-9.75-6-5.75s-12.375,25.183-12.375,25.183l-4.114-22.241"/>
	</g>
</g>
<g id="last-name">
	<g>
		<path id="last-L" d="
			M233.328,5.593c0,0,3.244,41.787-18.75,93.93c0,0,70.756-10.356,149.119-11.356"/>
		<path id="last-U" d="
			M262.792,54.559c0,0-8.292,22.812,3.541,25.543c8,1.064,9.17-16.977,8.835-26.79c0,0-0.684,8.932,5.407,16.56"/>
		<path id="last-D" d="
			M304,56.667c0,0-11.333-3.354-21.311,7.534c0,0-5.522,7.466,0.811,12.132s12-2.667,12-2.667s12.516-8.637,9.342-50.319
			c0,0-9.577,32.527,4.791,51.006"/>
		<path id="last-E" d="M313.943,66.872
			c0,0,10.516-3.205,13.766-8.705s-4.059-7-6.404-4.875s-10.129,8.375-5.05,20.5c3.704,8,11.455-1.273,11.455-1.273"/>
		<path id="last-N" d="
			M335.088,55.229l3.745,21.815c0,0,8-25.603,14.625-24.678s2.125,5.05,5.375,28.675"/>
		<path id="last-A" d="
			M384.833,54.367c0,0-15.604-2.235-20,11.666s5.375,11.855,5.375,11.855s8.329-2.221,13.345-20.524c0,0,2.031,14.72,9.825,17.96"/>
	</g>
</g>
</svg>
